# Blender 4.2.1 LTS
# www.blender.org
mtllib test_world_1.mtl
o World
v 6.950000 0.000000 -8.000000
v 6.950000 4.000000 -8.000000
v 6.950000 0.000000 -12.000000
v 6.950000 4.000000 -12.000000
v 7.050000 0.000000 -8.000000
v 7.050000 4.000000 -8.000000
v 7.050000 0.000000 -12.000000
v 7.050000 4.000000 -12.000000
v 11.000000 0.050000 -12.000000
v 11.000000 -0.050000 -12.000000
v 11.000000 0.050000 12.000000
v 11.000000 -0.050000 12.000000
v -11.000000 0.050000 -12.000000
v -11.000000 -0.050000 -12.000000
v -11.000000 0.050000 12.000000
v -11.000000 -0.050000 12.000000
v 10.950000 0.000000 12.000000
v 10.950000 4.000000 12.000000
v 10.950000 0.000000 -12.000000
v 10.950000 4.000000 -12.000000
v 11.050000 0.000000 12.000000
v 11.050000 4.000000 12.000000
v 11.050000 0.000000 -12.000000
v 11.050000 4.000000 -12.000000
v 11.000000 0.000000 -11.950001
v 11.000000 4.000000 -11.950001
v -11.000000 0.000000 -11.950000
v -11.000000 4.000000 -11.950000
v 11.000000 0.000000 -12.050000
v 11.000000 4.000000 -12.050000
v -11.000000 0.000000 -12.049999
v -11.000000 4.000000 -12.049999
v 11.000000 0.000000 12.049999
v 11.000000 4.000000 12.049999
v -11.000000 0.000000 12.050001
v -11.000000 4.000000 12.050001
v 11.000000 0.000000 11.949999
v 11.000000 4.000000 11.949999
v -11.000000 0.000000 11.950001
v -11.000000 4.000000 11.950001
v 11.000000 0.000000 -7.950000
v 11.000000 4.000000 -7.950000
v 7.000000 0.000000 -7.950000
v 7.000000 4.000000 -7.950000
v 11.000000 0.000000 -8.050000
v 11.000000 4.000000 -8.050000
v 7.000000 0.000000 -8.050000
v 7.000000 4.000000 -8.050000
v 6.950000 0.000000 1.000000
v 6.950000 4.000000 1.000000
v 6.950000 0.000000 -5.000000
v 6.950000 4.000000 -5.000000
v 7.050000 0.000000 1.000000
v 7.050000 4.000000 1.000000
v 7.050000 0.000000 -5.000000
v 7.050000 4.000000 -5.000000
v 7.000000 0.000000 10.000000
v 7.000000 0.500000 10.000000
v 7.000000 0.000000 4.000000
v 7.000000 0.500000 4.000000
v 11.000000 0.000000 10.000000
v 11.000000 0.500000 10.000000
v 11.000000 0.000000 4.000000
v 11.000000 0.500000 4.000000
v -11.050001 0.000000 12.000000
v -11.050001 4.000000 12.000000
v -11.050001 0.000000 -12.000000
v -11.050001 4.000000 -12.000000
v -10.950001 0.000000 12.000000
v -10.950001 4.000000 12.000000
v -10.950001 0.000000 -12.000000
v -10.950001 4.000000 -12.000000
vn -1.0000 -0.0000 -0.0000
vn -0.0000 -0.0000 -1.0000
vn 1.0000 -0.0000 -0.0000
vn -0.0000 -0.0000 1.0000
vn -0.0000 -1.0000 -0.0000
vn -0.0000 1.0000 -0.0000
vt 0.375000 0.000000
vt 0.625000 0.000000
vt 0.625000 0.250000
vt 0.375000 0.250000
vt 0.625000 0.500000
vt 0.375000 0.500000
vt 0.625000 0.750000
vt 0.375000 0.750000
vt 0.625000 1.000000
vt 0.375000 1.000000
vt 0.125000 0.500000
vt 0.125000 0.750000
vt 0.875000 0.500000
vt 0.875000 0.750000
s 0
usemtl Material
f 1/1/1 2/2/1 4/3/1 3/4/1
f 3/4/2 4/3/2 8/5/2 7/6/2
f 7/6/3 8/5/3 6/7/3 5/8/3
f 5/8/4 6/7/4 2/9/4 1/10/4
f 3/11/5 7/6/5 5/8/5 1/12/5
f 8/5/6 4/13/6 2/14/6 6/7/6
f 9/5/6 13/13/6 15/14/6 11/7/6
f 12/8/4 11/7/4 15/9/4 16/10/4
f 16/1/1 15/2/1 13/3/1 14/4/1
f 14/11/5 10/6/5 12/8/5 16/12/5
f 10/6/3 9/5/3 11/7/3 12/8/3
f 14/4/2 13/3/2 9/5/2 10/6/2
f 17/1/1 18/2/1 20/3/1 19/4/1
f 19/4/2 20/3/2 24/5/2 23/6/2
f 23/6/3 24/5/3 22/7/3 21/8/3
f 21/8/4 22/7/4 18/9/4 17/10/4
f 19/11/5 23/6/5 21/8/5 17/12/5
f 24/5/6 20/13/6 18/14/6 22/7/6
f 25/1/4 26/2/4 28/3/4 27/4/4
f 27/4/1 28/3/1 32/5/1 31/6/1
f 31/6/2 32/5/2 30/7/2 29/8/2
f 29/8/3 30/7/3 26/9/3 25/10/3
f 27/11/5 31/6/5 29/8/5 25/12/5
f 32/5/6 28/13/6 26/14/6 30/7/6
f 33/1/4 34/2/4 36/3/4 35/4/4
f 35/4/1 36/3/1 40/5/1 39/6/1
f 39/6/2 40/5/2 38/7/2 37/8/2
f 37/8/3 38/7/3 34/9/3 33/10/3
f 35/11/5 39/6/5 37/8/5 33/12/5
f 40/5/6 36/13/6 34/14/6 38/7/6
f 41/1/4 42/2/4 44/3/4 43/4/4
f 43/4/1 44/3/1 48/5/1 47/6/1
f 47/6/2 48/5/2 46/7/2 45/8/2
f 45/8/3 46/7/3 42/9/3 41/10/3
f 43/11/5 47/6/5 45/8/5 41/12/5
f 48/5/6 44/13/6 42/14/6 46/7/6
f 49/1/1 50/2/1 52/3/1 51/4/1
f 51/4/2 52/3/2 56/5/2 55/6/2
f 55/6/3 56/5/3 54/7/3 53/8/3
f 53/8/4 54/7/4 50/9/4 49/10/4
f 51/11/5 55/6/5 53/8/5 49/12/5
f 56/5/6 52/13/6 50/14/6 54/7/6
f 57/1/1 58/2/1 60/3/1 59/4/1
f 59/4/2 60/3/2 64/5/2 63/6/2
f 63/6/3 64/5/3 62/7/3 61/8/3
f 61/8/4 62/7/4 58/9/4 57/10/4
f 59/11/5 63/6/5 61/8/5 57/12/5
f 64/5/6 60/13/6 58/14/6 62/7/6
f 65/1/1 66/2/1 68/3/1 67/4/1
f 67/4/2 68/3/2 72/5/2 71/6/2
f 71/6/3 72/5/3 70/7/3 69/8/3
f 69/8/4 70/7/4 66/9/4 65/10/4
f 67/11/5 71/6/5 69/8/5 65/12/5
f 72/5/6 68/13/6 66/14/6 70/7/6
o World-colonly
v 6.950000 0.000000 -8.000000
v 6.950000 4.000000 -8.000000
v 6.950000 0.000000 -12.000000
v 6.950000 4.000000 -12.000000
v 7.050000 0.000000 -8.000000
v 7.050000 4.000000 -8.000000
v 7.050000 0.000000 -12.000000
v 7.050000 4.000000 -12.000000
v 11.000000 0.050000 -12.000000
v 11.000000 -0.050000 -12.000000
v 11.000000 0.050000 12.000000
v 11.000000 -0.050000 12.000000
v -11.000000 0.050000 -12.000000
v -11.000000 -0.050000 -12.000000
v -11.000000 0.050000 12.000000
v -11.000000 -0.050000 12.000000
v 10.950000 0.000000 12.000000
v 10.950000 4.000000 12.000000
v 10.950000 0.000000 -12.000000
v 10.950000 4.000000 -12.000000
v 11.050000 0.000000 12.000000
v 11.050000 4.000000 12.000000
v 11.050000 0.000000 -12.000000
v 11.050000 4.000000 -12.000000
v 11.000000 0.000000 -11.950001
v 11.000000 4.000000 -11.950001
v -11.000000 0.000000 -11.950000
v -11.000000 4.000000 -11.950000
v 11.000000 0.000000 -12.050000
v 11.000000 4.000000 -12.050000
v -11.000000 0.000000 -12.049999
v -11.000000 4.000000 -12.049999
v 11.000000 0.000000 12.049999
v 11.000000 4.000000 12.049999
v -11.000000 0.000000 12.050001
v -11.000000 4.000000 12.050001
v 11.000000 0.000000 11.949999
v 11.000000 4.000000 11.949999
v -11.000000 0.000000 11.950001
v -11.000000 4.000000 11.950001
v 11.000000 0.000000 -7.950000
v 11.000000 4.000000 -7.950000
v 7.000000 0.000000 -7.950000
v 7.000000 4.000000 -7.950000
v 11.000000 0.000000 -8.050000
v 11.000000 4.000000 -8.050000
v 7.000000 0.000000 -8.050000
v 7.000000 4.000000 -8.050000
v 6.950000 0.000000 1.000000
v 6.950000 4.000000 1.000000
v 6.950000 0.000000 -5.000000
v 6.950000 4.000000 -5.000000
v 7.050000 0.000000 1.000000
v 7.050000 4.000000 1.000000
v 7.050000 0.000000 -5.000000
v 7.050000 4.000000 -5.000000
v 7.000000 0.000000 10.000000
v 7.000000 0.500000 10.000000
v 7.000000 0.000000 4.000000
v 7.000000 0.500000 4.000000
v 11.000000 0.000000 10.000000
v 11.000000 0.500000 10.000000
v 11.000000 0.000000 4.000000
v 11.000000 0.500000 4.000000
v -11.050001 0.000000 12.000000
v -11.050001 4.000000 12.000000
v -11.050001 0.000000 -12.000000
v -11.050001 4.000000 -12.000000
v -10.950001 0.000000 12.000000
v -10.950001 4.000000 12.000000
v -10.950001 0.000000 -12.000000
v -10.950001 4.000000 -12.000000
vn -1.0000 -0.0000 -0.0000
vn -0.0000 -0.0000 -1.0000
vn 1.0000 -0.0000 -0.0000
vn -0.0000 -0.0000 1.0000
vn -0.0000 -1.0000 -0.0000
vn -0.0000 1.0000 -0.0000
vt 0.375000 0.000000
vt 0.625000 0.000000
vt 0.625000 0.250000
vt 0.375000 0.250000
vt 0.625000 0.500000
vt 0.375000 0.500000
vt 0.625000 0.750000
vt 0.375000 0.750000
vt 0.625000 1.000000
vt 0.375000 1.000000
vt 0.125000 0.500000
vt 0.125000 0.750000
vt 0.875000 0.500000
vt 0.875000 0.750000
s 0
usemtl Material.002
f 73/15/7 74/16/7 76/17/7 75/18/7
f 75/18/8 76/17/8 80/19/8 79/20/8
f 79/20/9 80/19/9 78/21/9 77/22/9
f 77/22/10 78/21/10 74/23/10 73/24/10
f 75/25/11 79/20/11 77/22/11 73/26/11
f 80/19/12 76/27/12 74/28/12 78/21/12
f 81/19/12 85/27/12 87/28/12 83/21/12
f 84/22/10 83/21/10 87/23/10 88/24/10
f 88/15/7 87/16/7 85/17/7 86/18/7
f 86/25/11 82/20/11 84/22/11 88/26/11
f 82/20/9 81/19/9 83/21/9 84/22/9
f 86/18/8 85/17/8 81/19/8 82/20/8
f 89/15/7 90/16/7 92/17/7 91/18/7
f 91/18/8 92/17/8 96/19/8 95/20/8
f 95/20/9 96/19/9 94/21/9 93/22/9
f 93/22/10 94/21/10 90/23/10 89/24/10
f 91/25/11 95/20/11 93/22/11 89/26/11
f 96/19/12 92/27/12 90/28/12 94/21/12
f 97/15/10 98/16/10 100/17/10 99/18/10
f 99/18/7 100/17/7 104/19/7 103/20/7
f 103/20/8 104/19/8 102/21/8 101/22/8
f 101/22/9 102/21/9 98/23/9 97/24/9
f 99/25/11 103/20/11 101/22/11 97/26/11
f 104/19/12 100/27/12 98/28/12 102/21/12
f 105/15/10 106/16/10 108/17/10 107/18/10
f 107/18/7 108/17/7 112/19/7 111/20/7
f 111/20/8 112/19/8 110/21/8 109/22/8
f 109/22/9 110/21/9 106/23/9 105/24/9
f 107/25/11 111/20/11 109/22/11 105/26/11
f 112/19/12 108/27/12 106/28/12 110/21/12
f 113/15/10 114/16/10 116/17/10 115/18/10
f 115/18/7 116/17/7 120/19/7 119/20/7
f 119/20/8 120/19/8 118/21/8 117/22/8
f 117/22/9 118/21/9 114/23/9 113/24/9
f 115/25/11 119/20/11 117/22/11 113/26/11
f 120/19/12 116/27/12 114/28/12 118/21/12
f 121/15/7 122/16/7 124/17/7 123/18/7
f 123/18/8 124/17/8 128/19/8 127/20/8
f 127/20/9 128/19/9 126/21/9 125/22/9
f 125/22/10 126/21/10 122/23/10 121/24/10
f 123/25/11 127/20/11 125/22/11 121/26/11
f 128/19/12 124/27/12 122/28/12 126/21/12
f 129/15/7 130/16/7 132/17/7 131/18/7
f 131/18/8 132/17/8 136/19/8 135/20/8
f 135/20/9 136/19/9 134/21/9 133/22/9
f 133/22/10 134/21/10 130/23/10 129/24/10
f 131/25/11 135/20/11 133/22/11 129/26/11
f 136/19/12 132/27/12 130/28/12 134/21/12
f 137/15/7 138/16/7 140/17/7 139/18/7
f 139/18/8 140/17/8 144/19/8 143/20/8
f 143/20/9 144/19/9 142/21/9 141/22/9
f 141/22/10 142/21/10 138/23/10 137/24/10
f 139/25/11 143/20/11 141/22/11 137/26/11
f 144/19/12 140/27/12 138/28/12 142/21/12
